<mxfile host="Electron" modified="2023-12-05T19:46:11.765Z" agent="Mozilla/5.0 (Windows NT 10.0; Win64; x64) AppleWebKit/537.36 (KHTML, like Gecko) draw.io/22.1.2 Chrome/114.0.5735.289 Electron/25.9.4 Safari/537.36" etag="GMV0v6yHv8YSKw5cgK9n" version="22.1.2" type="device">
  <diagram name="Page-1" id="ogQR0vbufsRBDoe3NQwy">
    <mxGraphModel dx="939" dy="459" grid="1" gridSize="10" guides="1" tooltips="1" connect="1" arrows="1" fold="1" page="1" pageScale="1" pageWidth="1100" pageHeight="850" math="0" shadow="0">
      <root>
        <mxCell id="0" />
        <mxCell id="1" parent="0" />
        <mxCell id="HPTZdlK3wLMst6nRDZPx-6" value="" style="rounded=0;whiteSpace=wrap;html=1;" parent="1" vertex="1">
          <mxGeometry x="94" y="161" width="254" height="219" as="geometry" />
        </mxCell>
        <mxCell id="HPTZdlK3wLMst6nRDZPx-9" value="" style="rounded=0;orthogonalLoop=1;jettySize=auto;html=1;" parent="1" source="_ZGS0wOMplei5ZUW_Q5_-1" target="HPTZdlK3wLMst6nRDZPx-4" edge="1">
          <mxGeometry relative="1" as="geometry" />
        </mxCell>
        <mxCell id="CoPNUWldJfnN6J_34wdA-11" value="" style="ellipse;shape=cloud;whiteSpace=wrap;html=1;fillColor=#C4F1FF;" parent="1" vertex="1">
          <mxGeometry x="342" y="100" width="380" height="270" as="geometry" />
        </mxCell>
        <mxCell id="_ZGS0wOMplei5ZUW_Q5_-11" style="rounded=0;orthogonalLoop=1;jettySize=auto;html=1;" parent="1" source="fDsw_7z1_r8_yfR1lQKa-1" target="_ZGS0wOMplei5ZUW_Q5_-1" edge="1">
          <mxGeometry relative="1" as="geometry" />
        </mxCell>
        <mxCell id="fDsw_7z1_r8_yfR1lQKa-1" value="&amp;lt;&amp;lt;connector&amp;gt;&amp;gt;&lt;br&gt;Consumer" style="ellipse;whiteSpace=wrap;html=1;aspect=fixed;strokeColor=#CCCC00;fillColor=#FFFF99;" parent="1" vertex="1">
          <mxGeometry x="380" y="259" width="80" height="79" as="geometry" />
        </mxCell>
        <mxCell id="fDsw_7z1_r8_yfR1lQKa-3" value="&amp;lt;&amp;lt;connector&amp;gt;&amp;gt;&lt;br&gt;Provider" style="ellipse;whiteSpace=wrap;html=1;aspect=fixed;strokeColor=#CCCC00;fillColor=#FFFF99;" parent="1" vertex="1">
          <mxGeometry x="627" y="264" width="80" height="79" as="geometry" />
        </mxCell>
        <mxCell id="fDsw_7z1_r8_yfR1lQKa-5" value="Data Space" style="text;html=1;strokeColor=none;fillColor=none;align=center;verticalAlign=middle;whiteSpace=wrap;rounded=0;" parent="1" vertex="1">
          <mxGeometry x="469" y="135" width="81" height="30" as="geometry" />
        </mxCell>
        <mxCell id="_ZGS0wOMplei5ZUW_Q5_-1" value="Sink CTI" style="shape=cylinder3;whiteSpace=wrap;html=1;boundedLbl=1;backgroundOutline=1;size=15;strokeColor=#009900;fillColor=#A1FFB7;" parent="1" vertex="1">
          <mxGeometry x="270" y="263" width="60" height="80" as="geometry" />
        </mxCell>
        <mxCell id="_ZGS0wOMplei5ZUW_Q5_-8" style="rounded=0;orthogonalLoop=1;jettySize=auto;html=1;" parent="1" source="_ZGS0wOMplei5ZUW_Q5_-2" target="fDsw_7z1_r8_yfR1lQKa-3" edge="1">
          <mxGeometry relative="1" as="geometry" />
        </mxCell>
        <mxCell id="_ZGS0wOMplei5ZUW_Q5_-2" value="Source CTI" style="shape=cylinder3;whiteSpace=wrap;html=1;boundedLbl=1;backgroundOutline=1;size=15;strokeColor=#006600;fillColor=#A1FFB7;" parent="1" vertex="1">
          <mxGeometry x="742" y="267" width="60" height="80" as="geometry" />
        </mxCell>
        <mxCell id="HPTZdlK3wLMst6nRDZPx-2" value="How to express CTI usage policies?" style="shape=callout;whiteSpace=wrap;html=1;perimeter=calloutPerimeter;position2=1;strokeColor=#009900;fillColor=#A1FFB7;direction=south;base=12;" parent="1" vertex="1">
          <mxGeometry x="670" y="198" width="158.5" height="61" as="geometry" />
        </mxCell>
        <mxCell id="HPTZdlK3wLMst6nRDZPx-3" value="How to search for CTI?" style="shape=callout;whiteSpace=wrap;html=1;perimeter=calloutPerimeter;position2=0;base=35;strokeColor=#009900;fillColor=#A1FFB7;size=24;position=0.09;" parent="1" vertex="1">
          <mxGeometry x="469" y="268" width="102" height="75" as="geometry" />
        </mxCell>
        <mxCell id="HPTZdlK3wLMst6nRDZPx-33" style="rounded=0;orthogonalLoop=1;jettySize=auto;html=1;" parent="1" source="HPTZdlK3wLMst6nRDZPx-4" target="HPTZdlK3wLMst6nRDZPx-20" edge="1">
          <mxGeometry relative="1" as="geometry" />
        </mxCell>
        <mxCell id="HPTZdlK3wLMst6nRDZPx-4" value="TIP" style="ellipse;whiteSpace=wrap;html=1;aspect=fixed;strokeColor=#CCCC00;fillColor=#FFFF99;" parent="1" vertex="1">
          <mxGeometry x="176" y="401" width="80" height="45" as="geometry" />
        </mxCell>
        <mxCell id="HPTZdlK3wLMst6nRDZPx-12" style="rounded=0;orthogonalLoop=1;jettySize=auto;html=1;exitX=0.5;exitY=1;exitDx=0;exitDy=0;exitPerimeter=0;" parent="1" source="HPTZdlK3wLMst6nRDZPx-5" target="HPTZdlK3wLMst6nRDZPx-4" edge="1">
          <mxGeometry relative="1" as="geometry" />
        </mxCell>
        <mxCell id="HPTZdlK3wLMst6nRDZPx-5" value="Open-Source CTI" style="shape=cylinder3;whiteSpace=wrap;html=1;boundedLbl=1;backgroundOutline=1;size=15;" parent="1" vertex="1">
          <mxGeometry x="180" y="263" width="78" height="80" as="geometry" />
        </mxCell>
        <mxCell id="HPTZdlK3wLMst6nRDZPx-7" value="CTI Sources" style="text;html=1;strokeColor=none;fillColor=none;align=center;verticalAlign=middle;whiteSpace=wrap;rounded=0;" parent="1" vertex="1">
          <mxGeometry x="164" y="160" width="82" height="30" as="geometry" />
        </mxCell>
        <mxCell id="HPTZdlK3wLMst6nRDZPx-13" style="rounded=0;orthogonalLoop=1;jettySize=auto;html=1;exitX=0.5;exitY=1;exitDx=0;exitDy=0;exitPerimeter=0;" parent="1" source="HPTZdlK3wLMst6nRDZPx-8" target="HPTZdlK3wLMst6nRDZPx-4" edge="1">
          <mxGeometry relative="1" as="geometry" />
        </mxCell>
        <mxCell id="HPTZdlK3wLMst6nRDZPx-8" value="Other CTI&lt;br&gt;Sources" style="shape=cylinder3;whiteSpace=wrap;html=1;boundedLbl=1;backgroundOutline=1;size=15;" parent="1" vertex="1">
          <mxGeometry x="100" y="263" width="60" height="80" as="geometry" />
        </mxCell>
        <mxCell id="HPTZdlK3wLMst6nRDZPx-16" value="How to integrate DS and TIP?" style="shape=callout;whiteSpace=wrap;html=1;perimeter=calloutPerimeter;position2=0.53;base=20;size=24;position=0.36;strokeColor=#009900;fillColor=#A1FFB7;" parent="1" vertex="1">
          <mxGeometry x="228" y="185" width="111" height="74" as="geometry" />
        </mxCell>
        <mxCell id="HPTZdlK3wLMst6nRDZPx-20" value="Security Tools:&lt;br style=&quot;border-color: var(--border-color);&quot;&gt;SIEM / Firewall / IPS / SOAR" style="rounded=1;whiteSpace=wrap;html=1;" parent="1" vertex="1">
          <mxGeometry x="131" y="468" width="170" height="60" as="geometry" />
        </mxCell>
        <mxCell id="HPTZdlK3wLMst6nRDZPx-30" style="rounded=0;orthogonalLoop=1;jettySize=auto;html=1;" parent="1" source="HPTZdlK3wLMst6nRDZPx-27" target="fDsw_7z1_r8_yfR1lQKa-1" edge="1">
          <mxGeometry relative="1" as="geometry" />
        </mxCell>
        <mxCell id="HPTZdlK3wLMst6nRDZPx-27" value="Sharing Panel" style="ellipse;whiteSpace=wrap;html=1;strokeColor=#009900;fillColor=#A1FFB7;" parent="1" vertex="1">
          <mxGeometry x="364.5" y="368" width="111" height="73" as="geometry" />
        </mxCell>
        <mxCell id="HPTZdlK3wLMst6nRDZPx-32" style="rounded=0;orthogonalLoop=1;jettySize=auto;html=1;" parent="1" source="HPTZdlK3wLMst6nRDZPx-31" target="fDsw_7z1_r8_yfR1lQKa-3" edge="1">
          <mxGeometry relative="1" as="geometry" />
        </mxCell>
        <mxCell id="HPTZdlK3wLMst6nRDZPx-31" value="Sharing Panel" style="ellipse;whiteSpace=wrap;html=1;strokeColor=#009900;fillColor=#A1FFB7;" parent="1" vertex="1">
          <mxGeometry x="627" y="380" width="111" height="73" as="geometry" />
        </mxCell>
        <mxCell id="HPTZdlK3wLMst6nRDZPx-34" value="How to express CTI data offers?" style="shape=callout;whiteSpace=wrap;html=1;perimeter=calloutPerimeter;position2=1;strokeColor=#009900;fillColor=#A1FFB7;" parent="1" vertex="1">
          <mxGeometry x="518" y="196.5" width="120" height="78" as="geometry" />
        </mxCell>
        <mxCell id="HPTZdlK3wLMst6nRDZPx-37" value="Data owner" style="shape=umlActor;verticalLabelPosition=bottom;verticalAlign=top;html=1;outlineConnect=0;fontFamily=Helvetica;fontSize=11;fontColor=default;" parent="1" vertex="1">
          <mxGeometry x="727" y="411" width="30" height="60" as="geometry" />
        </mxCell>
        <mxCell id="HPTZdlK3wLMst6nRDZPx-40" value="Data Consumer" style="shape=umlActor;verticalLabelPosition=bottom;verticalAlign=top;html=1;outlineConnect=0;fontFamily=Helvetica;fontSize=11;fontColor=default;" parent="1" vertex="1">
          <mxGeometry x="354" y="407" width="30" height="60" as="geometry" />
        </mxCell>
      </root>
    </mxGraphModel>
  </diagram>
</mxfile>
